# xmcd
#
# Track frame offsets:
#	150
#	153337
#	184575
#
# Disc length: 3077 seconds
#
# Revision: 1
# Processed by: cddbd v1.5.1PL0 Copyright (c) Steve Scherf et al.
# Submitted via: CDex 1.50Beta5
#
DISCID=190c0303
DTITLE=BORO - 大阪で生まれた女・18
DYEAR=1900
DGENRE=Blues
TTITLE0=大阪で生まれた女・18
TTITLE1=ビオラのように
TTITLE2=毎日がハッピーニューイヤー
EXTD=
EXTT0=
EXTT1=
EXTT2=
PLAYORDER=
